{
	"asset":{
		"generator":"Khronos glTF Blender I/O v3.5.30",
		"version":"2.0"
	},
	"extensionsUsed":[
		"KHR_materials_specular",
		"KHR_materials_ior"
	],
	"scene":0,
	"scenes":[
		{
			"name":"Scene",
			"nodes":[
				0,
				1
			]
		}
	],
	"nodes":[
		{
			"mesh":0,
			"name":"caja",
			"translation":[
				0,
				1.0000486373901367,
				0
			]
		},
		{
			"mesh":1,
			"name":"Questions",
			"rotation":[
				-0.5,
				0.5,
				-0.5,
				0.5000000596046448
			],
			"scale":[
				0.3103492259979248,
				0.3103492259979248,
				0.3103492259979248
			],
			"translation":[
				-0.1317085474729538,
				1.1268779039382935,
				0.7129759788513184
			]
		}
	],
	"materials":[
		{
			"doubleSided":true,
			"extensions":{
				"KHR_materials_specular":{
					"specularColorFactor":[
						0.43879452199002106,
						0.43879452199002106,
						0.43879452199002106
					]
				},
				"KHR_materials_ior":{
					"ior":1.4500000476837158
				}
			},
			"name":"Amarillo",
			"pbrMetallicRoughness":{
				"baseColorFactor":[
					0.8000000715255737,
					0.4974384009838104,
					0.050203341990709305,
					1
				],
				"metallicFactor":0.0314960777759552,
				"roughnessFactor":0
			}
		},
		{
			"doubleSided":true,
			"name":"Amarillofuerte",
			"pbrMetallicRoughness":{
				"baseColorFactor":[
					0.1733543574810028,
					0.1334451138973236,
					0.023062173277139664,
					1
				],
				"metallicFactor":0,
				"roughnessFactor":0.5
			}
		},
		{
			"doubleSided":true,
			"extensions":{
				"KHR_materials_specular":{
					"specularColorFactor":[
						2.371357614441398,
						2.371357614441398,
						2.371357614441398
					]
				},
				"KHR_materials_ior":{
					"ior":1.4500000476837158
				}
			},
			"name":"Blanco",
			"pbrMetallicRoughness":{
				"baseColorFactor":[
					0.800000011920929,
					0.800000011920929,
					0.800000011920929,
					1
				],
				"metallicFactor":0.30708661675453186,
				"roughnessFactor":0.3740157186985016
			}
		}
	],
	"meshes":[
		{
			"name":"Cube",
			"primitives":[
				{
					"attributes":{
						"POSITION":0,
						"TEXCOORD_0":1,
						"NORMAL":2
					},
					"indices":3,
					"material":0
				},
				{
					"attributes":{
						"POSITION":4,
						"TEXCOORD_0":5,
						"NORMAL":6
					},
					"indices":7,
					"material":1
				},
				{
					"attributes":{
						"POSITION":8,
						"TEXCOORD_0":9,
						"NORMAL":10
					},
					"indices":11,
					"material":1
				}
			]
		},
		{
			"name":"Plane.003",
			"primitives":[
				{
					"attributes":{
						"POSITION":12,
						"TEXCOORD_0":13,
						"NORMAL":14
					},
					"indices":15,
					"material":2
				}
			]
		}
	],
	"accessors":[
		{
			"bufferView":0,
			"componentType":5126,
			"count":56016,
			"max":[
				0.9995021820068359,
				0.9995021820068359,
				0.9995021820068359
			],
			"min":[
				-0.9995021820068359,
				-0.9995021820068359,
				-0.9995021820068359
			],
			"type":"VEC3"
		},
		{
			"bufferView":1,
			"componentType":5126,
			"count":56016,
			"type":"VEC2"
		},
		{
			"bufferView":2,
			"componentType":5126,
			"count":56016,
			"type":"VEC3"
		},
		{
			"bufferView":3,
			"componentType":5123,
			"count":85176,
			"type":"SCALAR"
		},
		{
			"bufferView":4,
			"componentType":5126,
			"count":2932,
			"max":[
				0.8918789625167847,
				0.827262282371521,
				0.9978156089782715
			],
			"min":[
				-0.9977155327796936,
				-0.8076435327529907,
				-0.9978156089782715
			],
			"type":"VEC3"
		},
		{
			"bufferView":5,
			"componentType":5126,
			"count":2932,
			"type":"VEC2"
		},
		{
			"bufferView":6,
			"componentType":5126,
			"count":2932,
			"type":"VEC3"
		},
		{
			"bufferView":7,
			"componentType":5123,
			"count":5532,
			"type":"SCALAR"
		},
		{
			"bufferView":8,
			"componentType":5126,
			"count":748,
			"max":[
				0.9977155923843384,
				0.827262282371521,
				0.7921600341796875
			],
			"min":[
				0.8918789625167847,
				-0.8076435327529907,
				-0.7821937203407288
			],
			"type":"VEC3"
		},
		{
			"bufferView":9,
			"componentType":5126,
			"count":748,
			"type":"VEC2"
		},
		{
			"bufferView":10,
			"componentType":5126,
			"count":748,
			"type":"VEC3"
		},
		{
			"bufferView":11,
			"componentType":5123,
			"count":1188,
			"type":"SCALAR"
		},
		{
			"bufferView":12,
			"componentType":5126,
			"count":96,
			"max":[
				2.122047185897827,
				5.473996639251709,
				3.574862241744995
			],
			"min":[
				-1.4660587310791016,
				-0.8655790686607361,
				-2.7209978103637695
			],
			"type":"VEC3"
		},
		{
			"bufferView":13,
			"componentType":5126,
			"count":96,
			"type":"VEC2"
		},
		{
			"bufferView":14,
			"componentType":5126,
			"count":96,
			"type":"VEC3"
		},
		{
			"bufferView":15,
			"componentType":5123,
			"count":240,
			"type":"SCALAR"
		}
	],
	"bufferViews":[
		{
			"buffer":0,
			"byteLength":672192,
			"byteOffset":0,
			"target":34962
		},
		{
			"buffer":0,
			"byteLength":448128,
			"byteOffset":672192,
			"target":34962
		},
		{
			"buffer":0,
			"byteLength":672192,
			"byteOffset":1120320,
			"target":34962
		},
		{
			"buffer":0,
			"byteLength":170352,
			"byteOffset":1792512,
			"target":34963
		},
		{
			"buffer":0,
			"byteLength":35184,
			"byteOffset":1962864,
			"target":34962
		},
		{
			"buffer":0,
			"byteLength":23456,
			"byteOffset":1998048,
			"target":34962
		},
		{
			"buffer":0,
			"byteLength":35184,
			"byteOffset":2021504,
			"target":34962
		},
		{
			"buffer":0,
			"byteLength":11064,
			"byteOffset":2056688,
			"target":34963
		},
		{
			"buffer":0,
			"byteLength":8976,
			"byteOffset":2067752,
			"target":34962
		},
		{
			"buffer":0,
			"byteLength":5984,
			"byteOffset":2076728,
			"target":34962
		},
		{
			"buffer":0,
			"byteLength":8976,
			"byteOffset":2082712,
			"target":34962
		},
		{
			"buffer":0,
			"byteLength":2376,
			"byteOffset":2091688,
			"target":34963
		},
		{
			"buffer":0,
			"byteLength":1152,
			"byteOffset":2094064,
			"target":34962
		},
		{
			"buffer":0,
			"byteLength":768,
			"byteOffset":2095216,
			"target":34962
		},
		{
			"buffer":0,
			"byteLength":1152,
			"byteOffset":2095984,
			"target":34962
		},
		{
			"buffer":0,
			"byteLength":480,
			"byteOffset":2097136,
			"target":34963
		}
	],
	"buffers":[
		{
			"byteLength":2097616,
			"uri":"data:application/octet-stream;base64,"
		}
	]
}
