{
	"asset":{
		"generator":"Khronos glTF Blender I/O v3.5.30",
		"version":"2.0"
	},
	"scene":0,
	"scenes":[
		{
			"name":"Scene",
			"nodes":[
				0
			]
		}
	],
	"nodes":[
		{
			"mesh":0,
			"name":"Questions",
			"rotation":[
				-0.5,
				0.5,
				-0.5,
				0.5000000596046448
			],
			"scale":[
				0.3103492259979248,
				0.3103492259979248,
				0.3103492259979248
			],
			"translation":[
				-0.1317085474729538,
				1.1268779039382935,
				0.7129759788513184
			]
		}
	],
	"materials":[
		{
			"doubleSided":true,
			"name":"Material",
			"pbrMetallicRoughness":{
				"baseColorTexture":{
					"index":0
				},
				"metallicFactor":0,
				"roughnessFactor":0.5
			}
		}
	],
	"meshes":[
		{
			"name":"Plane.003",
			"primitives":[
				{
					"attributes":{
						"POSITION":0,
						"TEXCOORD_0":1,
						"NORMAL":2
					},
					"indices":3,
					"material":0
				}
			]
		}
	],
	"textures":[
		{
			"sampler":0,
			"source":0
		}
	],
	"images":[
		{
			"mimeType":"image/png",
			"name":"bake_color",
			"uri":"textures/bake_color.png"
		}
	],
	"accessors":[
		{
			"bufferView":0,
			"componentType":5126,
			"count":198685,
			"max":[
				3.6292388439178467,
				5.873995304107666,
				3.9748611450195312
			],
			"min":[
				-2.811906099319458,
				-1.2655779123306274,
				-3.1209967136383057
			],
			"type":"VEC3"
		},
		{
			"bufferView":1,
			"componentType":5126,
			"count":198685,
			"type":"VEC2"
		},
		{
			"bufferView":2,
			"componentType":5126,
			"count":198685,
			"type":"VEC3"
		},
		{
			"bufferView":3,
			"componentType":5125,
			"count":303084,
			"type":"SCALAR"
		}
	],
	"bufferViews":[
		{
			"buffer":0,
			"byteLength":2384220,
			"byteOffset":0,
			"target":34962
		},
		{
			"buffer":0,
			"byteLength":1589480,
			"byteOffset":2384220,
			"target":34962
		},
		{
			"buffer":0,
			"byteLength":2384220,
			"byteOffset":3973700,
			"target":34962
		},
		{
			"buffer":0,
			"byteLength":1212336,
			"byteOffset":6357920,
			"target":34963
		}
	],
	"samplers":[
		{
			"magFilter":9729,
			"minFilter":9987
		}
	],
	"buffers":[
		{
			"byteLength":7570256,
			"uri":"caja.bin"
		}
	]
}
