{
	"asset":{
		"generator":"Khronos glTF Blender I/O v3.5.30",
		"version":"2.0"
	},
	"extensionsUsed":[
		"KHR_materials_specular",
		"KHR_materials_ior"
	],
	"scene":0,
	"scenes":[
		{
			"name":"Scene",
			"nodes":[
				0
			]
		}
	],
	"nodes":[
		{
			"mesh":0,
			"name":"Questions",
			"rotation":[
				-0.4456929862499237,
				0.4456929564476013,
				-0.5489606857299805,
				0.5489607453346252
			],
			"scale":[
				0.3103492259979248,
				0.3103492259979248,
				0.3103492259979248
			],
			"translation":[
				-0.1317085474729538,
				1.1268779039382935,
				0.7129759788513184
			]
		}
	],
	"animations":[
		{
			"channels":[
				{
					"sampler":0,
					"target":{
						"node":0,
						"path":"translation"
					}
				},
				{
					"sampler":1,
					"target":{
						"node":0,
						"path":"rotation"
					}
				},
				{
					"sampler":2,
					"target":{
						"node":0,
						"path":"scale"
					}
				}
			],
			"name":"QuestionsAction",
			"samplers":[
				{
					"input":8,
					"interpolation":"LINEAR",
					"output":9
				},
				{
					"input":8,
					"interpolation":"LINEAR",
					"output":10
				},
				{
					"input":8,
					"interpolation":"LINEAR",
					"output":11
				}
			]
		}
	],
	"materials":[
		{
			"doubleSided":true,
			"extensions":{
				"KHR_materials_specular":{
					"specularColorFactor":[
						0.43879452199002106,
						0.43879452199002106,
						0.43879452199002106
					]
				},
				"KHR_materials_ior":{
					"ior":1.4500000476837158
				}
			},
			"name":"Amarillo",
			"pbrMetallicRoughness":{
				"baseColorFactor":[
					0.8000000715255737,
					0.4974384009838104,
					0.050203341990709305,
					1
				],
				"metallicFactor":0.0314960777759552,
				"roughnessFactor":0
			}
		},
		{
			"doubleSided":true,
			"extensions":{
				"KHR_materials_specular":{
					"specularColorFactor":[
						2.371357614441398,
						2.371357614441398,
						2.371357614441398
					]
				},
				"KHR_materials_ior":{
					"ior":1.4500000476837158
				}
			},
			"name":"Blanco",
			"pbrMetallicRoughness":{
				"baseColorFactor":[
					0.800000011920929,
					0.800000011920929,
					0.800000011920929,
					1
				],
				"metallicFactor":0.30708661675453186,
				"roughnessFactor":0.3740157186985016
			}
		}
	],
	"meshes":[
		{
			"name":"Plane.003",
			"primitives":[
				{
					"attributes":{
						"POSITION":0,
						"TEXCOORD_0":1,
						"NORMAL":2
					},
					"indices":3,
					"material":0
				},
				{
					"attributes":{
						"POSITION":4,
						"TEXCOORD_0":5,
						"NORMAL":6
					},
					"indices":7,
					"material":1
				}
			]
		}
	],
	"accessors":[
		{
			"bufferView":0,
			"componentType":5126,
			"count":189605,
			"max":[
				3.2482786178588867,
				3.2183194160461426,
				3.2103326320648193
			],
			"min":[
				-3.192866325378418,
				-3.222825765609741,
				-3.2308123111724854
			],
			"type":"VEC3"
		},
		{
			"bufferView":1,
			"componentType":5126,
			"count":189605,
			"type":"VEC2"
		},
		{
			"bufferView":2,
			"componentType":5126,
			"count":189605,
			"type":"VEC3"
		},
		{
			"bufferView":3,
			"componentType":5125,
			"count":289554,
			"type":"SCALAR"
		},
		{
			"bufferView":4,
			"componentType":5126,
			"count":9080,
			"max":[
				1.741518497467041,
				3.5744075775146484,
				3.5402328968048096
			],
			"min":[
				-1.847976803779602,
				-3.5651655197143555,
				-3.5556249618530273
			],
			"type":"VEC3"
		},
		{
			"bufferView":5,
			"componentType":5126,
			"count":9080,
			"type":"VEC2"
		},
		{
			"bufferView":6,
			"componentType":5126,
			"count":9080,
			"type":"VEC3"
		},
		{
			"bufferView":7,
			"componentType":5123,
			"count":13530,
			"type":"SCALAR"
		},
		{
			"bufferView":8,
			"componentType":5126,
			"count":250,
			"max":[
				10.416666666666666
			],
			"min":[
				0.041666666666666664
			],
			"type":"SCALAR"
		},
		{
			"bufferView":9,
			"componentType":5126,
			"count":250,
			"type":"VEC3"
		},
		{
			"bufferView":10,
			"componentType":5126,
			"count":250,
			"type":"VEC4"
		},
		{
			"bufferView":11,
			"componentType":5126,
			"count":250,
			"type":"VEC3"
		}
	],
	"bufferViews":[
		{
			"buffer":0,
			"byteLength":2275260,
			"byteOffset":0,
			"target":34962
		},
		{
			"buffer":0,
			"byteLength":1516840,
			"byteOffset":2275260,
			"target":34962
		},
		{
			"buffer":0,
			"byteLength":2275260,
			"byteOffset":3792100,
			"target":34962
		},
		{
			"buffer":0,
			"byteLength":1158216,
			"byteOffset":6067360,
			"target":34963
		},
		{
			"buffer":0,
			"byteLength":108960,
			"byteOffset":7225576,
			"target":34962
		},
		{
			"buffer":0,
			"byteLength":72640,
			"byteOffset":7334536,
			"target":34962
		},
		{
			"buffer":0,
			"byteLength":108960,
			"byteOffset":7407176,
			"target":34962
		},
		{
			"buffer":0,
			"byteLength":27060,
			"byteOffset":7516136,
			"target":34963
		},
		{
			"buffer":0,
			"byteLength":1000,
			"byteOffset":7543196
		},
		{
			"buffer":0,
			"byteLength":3000,
			"byteOffset":7544196
		},
		{
			"buffer":0,
			"byteLength":4000,
			"byteOffset":7547196
		},
		{
			"buffer":0,
			"byteLength":3000,
			"byteOffset":7551196
		}
	],
	"buffers":[
		{
			"byteLength":7554196,
			"uri":"caja.bin"
		}
	]
}
