{
	"asset":{
		"generator":"Khronos glTF Blender I/O v3.5.30",
		"version":"2.0"
	},
	"scene":0,
	"scenes":[
		{
			"name":"Scene",
			"nodes":[
				0
			]
		}
	],
	"nodes":[
		{
			"mesh":0,
			"name":"Mario",
			"translation":[
				0.02584562823176384,
				1.3717235326766968,
				-0.0963575541973114
			]
		}
	],
	"materials":[
		{
			"doubleSided":true,
			"name":"mario",
			"pbrMetallicRoughness":{
				"baseColorTexture":{
					"index":0
				},
				"metallicFactor":0,
				"roughnessFactor":0.5
			}
		}
	],
	"meshes":[
		{
			"name":"Mario",
			"primitives":[
				{
					"attributes":{
						"POSITION":0,
						"TEXCOORD_0":1,
						"NORMAL":2
					},
					"indices":3,
					"material":0
				}
			]
		}
	],
	"textures":[
		{
			"sampler":0,
			"source":0
		}
	],
	"images":[
		{
			"mimeType":"image/png",
			"name":"mario_main",
			"uri":"textures/mario_main.png"
		}
	],
	"accessors":[
		{
			"bufferView":0,
			"componentType":5126,
			"count":952,
			"max":[
				1.2869774103164673,
				1.1939915418624878,
				0.612639307975769
			],
			"min":[
				-1.2878626585006714,
				-1.3618683815002441,
				-0.5907796621322632
			],
			"type":"VEC3"
		},
		{
			"bufferView":1,
			"componentType":5126,
			"count":952,
			"type":"VEC2"
		},
		{
			"bufferView":2,
			"componentType":5126,
			"count":952,
			"type":"VEC3"
		},
		{
			"bufferView":3,
			"componentType":5123,
			"count":4059,
			"type":"SCALAR"
		}
	],
	"bufferViews":[
		{
			"buffer":0,
			"byteLength":11424,
			"byteOffset":0,
			"target":34962
		},
		{
			"buffer":0,
			"byteLength":7616,
			"byteOffset":11424,
			"target":34962
		},
		{
			"buffer":0,
			"byteLength":11424,
			"byteOffset":19040,
			"target":34962
		},
		{
			"buffer":0,
			"byteLength":8118,
			"byteOffset":30464,
			"target":34963
		}
	],
	"samplers":[
		{
			"magFilter":9729,
			"minFilter":9987
		}
	],
	"buffers":[
		{
			"byteLength":38584,
			"uri":"mario.bin"
		}
	]
}
