{
	"asset":{
		"generator":"Khronos glTF Blender I/O v3.5.30",
		"version":"2.0"
	},
	"scene":0,
	"scenes":[
		{
			"name":"Scene",
			"nodes":[
				0
			]
		}
	],
	"nodes":[
		{
			"mesh":0,
			"name":"Yoshi",
			"rotation":[
				0.7071068286895752,
				0,
				0,
				0.7071068286895752
			]
		}
	],
	"materials":[
		{
			"doubleSided":true,
			"name":"yoshi_green",
			"pbrMetallicRoughness":{
				"baseColorTexture":{
					"index":0
				},
				"metallicFactor":0,
				"roughnessFactor":0.5
			}
		}
	],
	"meshes":[
		{
			"name":"Yoshi",
			"primitives":[
				{
					"attributes":{
						"POSITION":0,
						"TEXCOORD_0":1,
						"NORMAL":2
					},
					"indices":3,
					"material":0
				}
			]
		}
	],
	"textures":[
		{
			"sampler":0,
			"source":0
		}
	],
	"images":[
		{
			"mimeType":"image/png",
			"name":"yoshi color",
			"uri":"textures/yoshi%20color.png"
		}
	],
	"accessors":[
		{
			"bufferView":0,
			"componentType":5126,
			"count":2283,
			"max":[
				0.5434903502464294,
				1.1402044296264648,
				0.9296512603759766
			],
			"min":[
				-0.5419636368751526,
				-0.8748764991760254,
				-1.2266530990600586
			],
			"type":"VEC3"
		},
		{
			"bufferView":1,
			"componentType":5126,
			"count":2283,
			"type":"VEC2"
		},
		{
			"bufferView":2,
			"componentType":5126,
			"count":2283,
			"type":"VEC3"
		},
		{
			"bufferView":3,
			"componentType":5123,
			"count":9210,
			"type":"SCALAR"
		}
	],
	"bufferViews":[
		{
			"buffer":0,
			"byteLength":27396,
			"byteOffset":0,
			"target":34962
		},
		{
			"buffer":0,
			"byteLength":18264,
			"byteOffset":27396,
			"target":34962
		},
		{
			"buffer":0,
			"byteLength":27396,
			"byteOffset":45660,
			"target":34962
		},
		{
			"buffer":0,
			"byteLength":18420,
			"byteOffset":73056,
			"target":34963
		}
	],
	"samplers":[
		{
			"magFilter":9729,
			"minFilter":9987
		}
	],
	"buffers":[
		{
			"byteLength":91476,
			"uri":"yoshi.bin"
		}
	]
}
